<mxfile host="app.diagrams.net" modified="2023-08-09T09:04:48.337Z" agent="Mozilla/5.0 (Macintosh; Intel Mac OS X 10_15_7) AppleWebKit/605.1.15 (KHTML, like Gecko) Version/16.5.1 Safari/605.1.15" version="21.6.7" etag="yXT4PFuaiFaJk2RdrXN2" type="github">
  <diagram name="Page-1" id="cPqgHwQHqq-C0fgMwfhz">
    <mxGraphModel>
      <root>
        <mxCell id="0" />
        <mxCell id="1" parent="0" />
      </root>
    </mxGraphModel>
  </diagram>
</mxfile>
